<svg width="42" height="42" viewBox="0 0 42 42" fill="none" xmlns="http://www.w3.org/2000/svg">
<path d="M20.6056 0C16.5302 0 12.5463 1.2085 9.15776 3.47268C5.76919 5.73685 3.12811 8.95501 1.56852 12.7202C0.00892718 16.4854 -0.399131 20.6285 0.39594 24.6256C1.19101 28.6227 3.1535 32.2942 6.03524 35.176C8.91699 38.0577 12.5886 40.0202 16.5857 40.8153C20.5828 41.6104 24.7259 41.2023 28.491 39.6427C32.2562 38.0831 35.4744 35.442 37.7385 32.0535C40.0027 28.6649 41.2112 24.681 41.2112 20.6056C41.2112 15.1407 39.0403 9.89954 35.176 6.03524C31.3117 2.17094 26.0706 0 20.6056 0V0Z" fill="url(#paint0_linear_18_372)"/>
<path d="M29.2725 21.5234C29.8597 21.0522 29.8599 20.1587 29.273 19.6872L17.7848 10.4577C17.0142 9.83863 15.8699 10.3872 15.8699 11.3756V29.8243C15.8699 30.8125 17.0136 31.3611 17.7843 30.7427L29.2725 21.5234Z" fill="white"/>
<defs>
<linearGradient id="paint0_linear_18_372" x1="20.6056" y1="0" x2="20.6056" y2="41.2112" gradientUnits="userSpaceOnUse">
<stop stop-color="#B63091"/>
<stop offset="1" stop-color="#ED1C51"/>
</linearGradient>
</defs>
</svg>
