<svg width="42" height="42" viewBox="0 0 42 42" fill="none" xmlns="http://www.w3.org/2000/svg">
<path d="M20.6056 0.575775C16.5302 0.575775 12.5463 1.78428 9.15776 4.04845C5.76919 6.31262 3.12811 9.53078 1.56852 13.296C0.00892718 17.0611 -0.399131 21.2042 0.39594 25.2013C1.19101 29.1984 3.1535 32.87 6.03524 35.7517C8.91699 38.6335 12.5886 40.596 16.5857 41.3911C20.5828 42.1861 24.7259 41.7781 28.491 40.2185C32.2562 38.6589 35.4744 36.0178 37.7385 32.6292C40.0027 29.2407 41.2112 25.2568 41.2112 21.1814C41.2112 15.7164 39.0403 10.4753 35.176 6.61102C31.3117 2.74672 26.0706 0.575775 20.6056 0.575775V0.575775Z" fill="url(#paint0_linear_18_373)"/>
<path fill-rule="evenodd" clip-rule="evenodd" d="M18.7129 11.8147C18.7131 11.6194 18.6521 11.4289 18.5387 11.2698C18.4252 11.1108 18.2649 10.9913 18.0801 10.9279C17.8953 10.8645 17.6953 10.8605 17.5081 10.9164C17.321 10.9723 17.1559 11.0853 17.0362 11.2396L10.4792 19.67C10.3513 19.8344 10.2819 20.0368 10.2819 20.2451C10.2819 20.4534 10.3513 20.6558 10.4792 20.8202L17.0362 29.2506C17.1559 29.4049 17.321 29.518 17.5081 29.5739C17.6953 29.6298 17.8953 29.6257 18.0801 29.5623C18.2649 29.499 18.4252 29.3794 18.5387 29.2204C18.6521 29.0613 18.7131 28.8708 18.7129 28.6755V24.938C23.7514 25.0429 26.1719 25.9993 27.3877 27.039C28.5436 28.0273 28.7553 29.1897 28.9754 30.4074L29.0326 30.7212C29.0746 30.9458 29.1973 31.1472 29.3774 31.2877C29.5576 31.4281 29.7829 31.4979 30.0109 31.4838C30.2389 31.4698 30.4539 31.3729 30.6155 31.2114C30.777 31.0499 30.874 30.835 30.8882 30.607C31.0484 28.0329 30.8076 24.3029 28.9895 21.1828C27.2247 18.1544 24.0465 15.8257 18.7129 15.5822V11.8147Z" fill="#F8F8F8"/>
<defs>
<linearGradient id="paint0_linear_18_373" x1="20.6056" y1="0.575775" x2="20.6056" y2="41.787" gradientUnits="userSpaceOnUse">
<stop stop-color="#FCC014"/>
<stop offset="1" stop-color="#F24C24"/>
</linearGradient>
</defs>
</svg>
